<svg viewBox="0 0 16 16" width="1em" height="1em" focusable="false" role="img" alt="icon" xmlns="http://www.w3.org/2000/svg" fill="currentColor" class="bi-arrow90deg-right mx-auto b-icon bi" data-v-8892b924=""><g data-v-8892b924="" stroke="none" fill="#212529" stroke-width="1px"><path fill-rule="evenodd" d="M9.896 2.396a.5.5 0 000 .708l2.647 2.646-2.647 2.646a.5.5 0 10.708.708l3-3a.5.5 0 000-.708l-3-3a.5.5 0 00-.708 0z" clip-rule="evenodd" stroke="none" fill="#212529" stroke-width="1px"></path><path fill-rule="evenodd" d="M13.25 5.75a.5.5 0 00-.5-.5h-6.5a2.5 2.5 0 00-2.5 2.5v5.5a.5.5 0 001 0v-5.5a1.5 1.5 0 011.5-1.5h6.5a.5.5 0 00.5-.5z" clip-rule="evenodd" stroke="none" fill="#212529" stroke-width="1px"></path></g></svg>