<svg viewBox="0 0 16 16" width="1em" height="1em" focusable="false" role="img" alt="icon" xmlns="http://www.w3.org/2000/svg" fill="currentColor" class="bi-calendar mx-auto b-icon bi" data-v-8892b924=""><g data-v-8892b924="" stroke="none" fill="#212529" stroke-width="1px"><path fill-rule="evenodd" d="M14 0H2a2 2 0 00-2 2v12a2 2 0 002 2h12a2 2 0 002-2V2a2 2 0 00-2-2zM1 3.857C1 3.384 1.448 3 2 3h12c.552 0 1 .384 1 .857v10.286c0 .473-.448.857-1 .857H2c-.552 0-1-.384-1-.857V3.857z" clip-rule="evenodd" stroke="none" fill="#212529" stroke-width="1px"></path><path fill-rule="evenodd" d="M6.5 7a1 1 0 100-2 1 1 0 000 2zm3 0a1 1 0 100-2 1 1 0 000 2zm3 0a1 1 0 100-2 1 1 0 000 2zm-9 3a1 1 0 100-2 1 1 0 000 2zm3 0a1 1 0 100-2 1 1 0 000 2zm3 0a1 1 0 100-2 1 1 0 000 2zm3 0a1 1 0 100-2 1 1 0 000 2zm-9 3a1 1 0 100-2 1 1 0 000 2zm3 0a1 1 0 100-2 1 1 0 000 2zm3 0a1 1 0 100-2 1 1 0 000 2z" clip-rule="evenodd" stroke="none" fill="#212529" stroke-width="1px"></path></g></svg>