<svg viewBox="0 0 16 16" width="1em" height="1em" focusable="false" role="img" alt="icon" xmlns="http://www.w3.org/2000/svg" fill="currentColor" class="bi-house mx-auto b-icon bi" data-v-8892b924=""><g data-v-8892b924="" stroke="none" fill="#212529" stroke-width="1px"><path fill-rule="evenodd" d="M2 13.5V7h1v6.5a.5.5 0 00.5.5h9a.5.5 0 00.5-.5V7h1v6.5a1.5 1.5 0 01-1.5 1.5h-9A1.5 1.5 0 012 13.5zm11-11V6l-2-2V2.5a.5.5 0 01.5-.5h1a.5.5 0 01.5.5z" clip-rule="evenodd" stroke="none" fill="#212529" stroke-width="1px"></path><path fill-rule="evenodd" d="M7.293 1.5a1 1 0 011.414 0l6.647 6.646a.5.5 0 01-.708.708L8 2.207 1.354 8.854a.5.5 0 11-.708-.708L7.293 1.5z" clip-rule="evenodd" stroke="none" fill="#212529" stroke-width="1px"></path></g></svg>