<svg xmlns="http://www.w3.org/2000/svg" width="53.103" height="72.124" viewBox="0 0 53.103 72.124"><defs><style>.a{opacity:0.16;}.b,.c{fill:#0ba29c;}.c,.d,.e{fill-rule:evenodd;}.d{fill:#3d3e3d;}.e{fill:#fff;}</style></defs><ellipse class="a" cx="12.701" cy="3.175" rx="12.701" ry="3.175" transform="translate(13.851 65.773)"/><path class="b" d="M286.712,496.212l7.158-33.924A2.729,2.729,0,0,0,291.2,459H276.885a2.728,2.728,0,0,0-2.669,3.292l7.157,33.924A2.729,2.729,0,0,0,286.712,496.212Z" transform="translate(-257.513 -429.967)"/><path class="c" d="M264.192,447.979a26.489,26.489,0,1,0-26.49-26.49A26.54,26.54,0,0,0,264.192,447.979Z" transform="translate(-237.595 -395)"/><g transform="translate(13.128 16.657)"><path class="d" d="M267.967,435.381a.809.809,0,1,1-1.5-.6,4.862,4.862,0,0,1,7.251-2.216h0a4.878,4.878,0,0,1,1.792,2.238.811.811,0,1,1-1.508.6,3.268,3.268,0,0,0-1.2-1.5,3.25,3.25,0,0,0-4.838,1.481Z" transform="translate(-266.406 -431.72)"/><path class="d" d="M307.157,435.381a.81.81,0,1,1-1.5-.6,4.862,4.862,0,0,1,7.251-2.216h0A4.871,4.871,0,0,1,314.7,434.8a.812.812,0,0,1-1.51.6,3.263,3.263,0,0,0-1.2-1.5,3.248,3.248,0,0,0-4.836,1.481Z" transform="translate(-287.818 -431.72)"/></g><path class="e" d="M329.438,443.582s7.174-2.448,9.466-8.3c0,0,1.164,1.019.938,3.832,0,0-2.375,5.139-9.655,7.525l-1.849-.478Z" transform="translate(-287.117 -417.008)"/><path class="e" d="M324.71,467.592l2.6-.592s7.152-2.831,9.286-7.235a7.071,7.071,0,0,1-1.329,5.875c-2.207,3.144-8.829,6.545-13.244,6.247Z" transform="translate(-283.669 -430.387)"/><path class="e" d="M248.669,443.582s-7.175-2.448-9.466-8.3c0,0-1.165,1.019-.938,3.832,0,0,2.375,5.139,9.653,7.525l1.85-.478Z" transform="translate(-237.886 -417.008)"/><path class="e" d="M249.525,467.592l-2.6-.592s-7.152-2.831-9.284-7.235a7.069,7.069,0,0,0,1.328,5.875c2.207,3.144,8.83,6.545,13.244,6.247Z" transform="translate(-237.465 -430.387)"/><path class="e" d="M288.149,448.647c2.907.355,4.163,3.119,4.361,7.228a42.87,42.87,0,0,1-.3,8.329c-.516,2.4-1.7,4.445-4.258,5.008-5.512,1.216-19.674,1.216-25.189,0-2.4-.529-3.59-2.357-4.155-4.567-.569-2.23-.5-6.7-.4-8.77.2-4.11,1.454-6.873,4.361-7.228A201.807,201.807,0,0,1,288.149,448.647Z" transform="translate(-248.76 -424.091)"/></svg>