<svg xmlns="http://www.w3.org/2000/svg" width="53.103" height="71.836" viewBox="0 0 53.103 71.836"><defs><style>.a{opacity:0.16;}.b,.c{fill:#fbb03b;}.c,.d,.e{fill-rule:evenodd;}.d{fill:#3d3e3d;}.e{fill:#fff;}</style></defs><ellipse class="a" cx="12.701" cy="3.175" rx="12.701" ry="3.175" transform="translate(13.905 65.485)"/><path class="b" d="M438.64,496.847l7.158-33.924a2.729,2.729,0,0,0-2.67-3.292H428.813a2.729,2.729,0,0,0-2.669,3.292l7.157,33.924A2.728,2.728,0,0,0,438.64,496.847Z" transform="translate(-409.419 -430.602)"/><path class="c" d="M416.073,448.614a26.49,26.49,0,1,0-26.49-26.49A26.541,26.541,0,0,0,416.073,448.614Z" transform="translate(-389.475 -395.635)"/><g transform="translate(13.128 16.657)"><path class="d" d="M465.076,432.885a.809.809,0,1,1,1.5.6,4.862,4.862,0,0,1-7.251,2.216h0a4.879,4.879,0,0,1-1.792-2.238.811.811,0,1,1,1.508-.6,3.269,3.269,0,0,0,1.2,1.5,3.25,3.25,0,0,0,4.838-1.481Z" transform="translate(-439.699 -432.355)"/><path class="d" d="M425.887,432.885a.81.81,0,1,1,1.5.6,4.862,4.862,0,0,1-7.251,2.216h0a4.867,4.867,0,0,1-1.794-2.238.811.811,0,1,1,1.509-.6,3.262,3.262,0,0,0,1.2,1.5,3.248,3.248,0,0,0,4.836-1.481Z" transform="translate(-418.287 -432.355)"/></g><path class="e" d="M481.319,444.217s7.174-2.449,9.466-8.3c0,0,1.164,1.019.938,3.832,0,0-2.375,5.139-9.655,7.525l-1.85-.477Z" transform="translate(-438.998 -417.643)"/><path class="e" d="M476.592,468.228l2.6-.592s7.153-2.831,9.285-7.235a7.069,7.069,0,0,1-1.328,5.874c-2.207,3.144-8.829,6.546-13.245,6.247Z" transform="translate(-435.55 -431.022)"/><path class="e" d="M400.55,444.217s-7.174-2.449-9.465-8.3c0,0-1.165,1.019-.938,3.832,0,0,2.375,5.139,9.653,7.525l1.85-.477Z" transform="translate(-389.767 -417.643)"/><path class="e" d="M401.405,468.228l-2.6-.592s-7.152-2.831-9.285-7.235a7.069,7.069,0,0,0,1.329,5.874c2.206,3.144,8.829,6.546,13.244,6.247Z" transform="translate(-389.345 -431.022)"/><path class="e" d="M440.03,449.282c2.907.355,4.163,3.119,4.361,7.229a42.859,42.859,0,0,1-.3,8.329c-.516,2.4-1.7,4.445-4.259,5.007-5.512,1.216-19.674,1.216-25.189,0-2.4-.528-3.59-2.357-4.155-4.566-.569-2.23-.5-6.705-.4-8.77.2-4.11,1.454-6.874,4.361-7.229A201.822,201.822,0,0,1,440.03,449.282Z" transform="translate(-400.641 -424.725)"/></svg>