<svg xmlns="http://www.w3.org/2000/svg" width="48.866" height="48.866" viewBox="0 0 48.866 48.866"><defs><style>.a{fill:#0ba29c;}.b{fill:#fff;}</style></defs><path class="a" d="M24.433,0A24.433,24.433,0,1,1,0,24.433,24.433,24.433,0,0,1,24.433,0Z" transform="translate(0 0)"/><path class="b" d="M247.549,129.029a3.057,3.057,0,0,1,3.054-3.062h4.1a3.046,3.046,0,0,1,3.033,2.7,14.864,14.864,0,0,0,.554,2.675,3.048,3.048,0,0,1-.754,3.057l-1.661,1.661a19.155,19.155,0,0,0,7.573,7.573l1.661-1.661a3.048,3.048,0,0,1,3.057-.754,14.869,14.869,0,0,0,2.674.554,3.045,3.045,0,0,1,2.7,3.033v4.1a3.056,3.056,0,0,1-3.341,3.04,25.05,25.05,0,0,1-22.635-22.636,2.794,2.794,0,0,1-.013-.279Zm8.845,3.217a1.038,1.038,0,0,0-.048-.31,16.887,16.887,0,0,1-.63-3.041,1.016,1.016,0,0,0-1.016-.9h-4.1a1.01,1.01,0,0,0-.754.332,1.025,1.025,0,0,0-.265.792,23.01,23.01,0,0,0,20.8,20.8,1.025,1.025,0,0,0,.792-.265,1.011,1.011,0,0,0,.332-.754v-4.1a1.016,1.016,0,0,0-.9-1.016,16.884,16.884,0,0,1-3.041-.63,1.024,1.024,0,0,0-1.028.247l-2.7,2.7-.654-.325a21.163,21.163,0,0,1-9.464-9.466l-.326-.654,2.7-2.7a1.01,1.01,0,0,0,.295-.717Zm0,0" transform="translate(-236.111 -114.529)"/></svg>