<svg xmlns="http://www.w3.org/2000/svg" xmlns:xlink="http://www.w3.org/1999/xlink" width="136" height="135" viewBox="0 0 136 135"><defs><style>.a,.i{fill:#fff;}.b,.g{fill:#0ba29c;}.b{stroke:#fff;}.c{clip-path:url(#a);}.d{fill:#3c2e1e;}.aa,.ab,.ac,.ad,.ae,.af,.ag,.ah,.ai,.aj,.d,.e,.f,.g,.h,.i,.j,.k,.l,.n,.o,.p,.q,.r,.s,.t,.u,.v,.w,.x,.z{fill-rule:evenodd;}.e{fill:#f9dcca;}.f{fill:#f8d3bc;}.h{fill:#564952;}.j{fill:#f3f3f4;}.k{fill:#7a7a7a;}.l,.y{fill:#4a4746;}.m{fill:#b9b9ba;}.n{fill:#dedede;}.o{fill:#34302c;}.p{fill:#f0f0f0;}.q{fill:#f5bab3;}.r{fill:#ee8852;}.s,.u{fill:#eda5ab;}.t{fill:#5d3e26;}.u{opacity:0.23;}.v{fill:#353537;}.w{fill:#d88a8e;}.x{fill:#f6f6f5;}.z{fill:#d2d2d3;}.aa{fill:#bdbec0;}.ab{fill:#f8cfb5;}.ac{fill:#302623;}.ad{fill:#e86664;}.ae{fill:#8c472e;}.af{fill:#da9e90;}.ag{fill:#f5cdb8;}.ah{fill:#f8d6c2;}.ai{fill:#fafbfb;}.aj{fill:#403121;}.ak{stroke:none;}.al{fill:none;}</style><clipPath id="a"><ellipse class="a" cx="68" cy="67.5" rx="68" ry="67.5" transform="translate(-0.231 0)"/></clipPath></defs><g transform="translate(0.231)"><g class="b" transform="translate(-0.231 0)"><ellipse class="ak" cx="68" cy="67.5" rx="68" ry="67.5"/><ellipse class="al" cx="68" cy="67.5" rx="67.5" ry="67"/></g><g class="c" transform="translate(0 0)"><g transform="translate(19.145 8.212)"><path class="d" d="M535.531,127.718a146.949,146.949,0,0,1,.589,18.745c-.487,7.929-.805,18.43,8.924,32.75l45.823,5.6c-6.665-20.424-4.26-38.361-1.91-43.232,3.359-6.961-1.185-26.866-1.185-26.866s-1.146,10.127-1.718,18.263a55.277,55.277,0,0,1-3.486,15.229s-29.672-7.263-36.882-13.179-10.135-6.7-10.135-6.7Z" transform="translate(-510.137 -99.547)"/><path class="e" d="M549.6,379.17c0,.828.636,4.5.636,4.5,0,3.1-4.037,7.361-5.984,9.061,0,0,0,.689,1.089.863s6.933-.654,8.286-2.529a9.853,9.853,0,0,0,1.7-5.277c.2-1.736-1.744-4.4-1.744-4.4Z" transform="translate(-509.834 -90.335)"/><path class="e" d="M590.45,243.372c.349,1.221,1.221,19.535-1.221,32.094-1.238,6.368-6.448,35.09-10.187,62.119-.9,6.5-8.082,50.616-8.256,50.965-.347.7-4.193,1.333-4.236-.105-1.074-35.82,1-68.1-3.136-104.432-.816-7.18-7.426,104.763-8.035,105.548-1.526,1.961-4.349,1.635-4.872-.282-.824-3.022-4.33-47.269-4.434-56.6-.253-22.537-7.675-74.211-8.037-76.049C534.585,239.058,579.717,244.187,590.45,243.372Z" transform="translate(-510.057 -95.069)"/><path class="f" d="M556.486,154.668a68.876,68.876,0,0,1-1.134,9.855c-.636,2.547-3.881,5.757-3.881,5.757,1.047,4.249,7.694,33.442,12.731,33.648,4.207.173,6.974-28.1,7.415-30.117.676-3.093-3.358-5.8-4.144-9.027a60.054,60.054,0,0,1-.872-9.681Z" transform="translate(-509.582 -98.155)"/><path class="g" d="M570.325,172.145l12.734,3.169s6.191,3.488,6.54,8.721,1.221,16.57,3.488,34.012,2.791,38.374,1.4,41.165-11.339,10.291-28.955,11.163-27.036-9.244-28.083-12.733,2.095-60.176,2.617-70.99-.349-10.989,1.919-12.734,7.634-3.687,7.634-3.687l7.566,1.655,1.85-2.764-1.169,9.686,5.6,16.4,3.352-16.4-.976-9.6Z" transform="translate(-510.078 -97.652)"/><path class="h" d="M544.334,251.7s-4.952,27.628-4.079,40.165,3.122,35.927,3.122,35.927l39.024,1.469s3.818-24.955,4.424-38.152-1.221-38.519-1.221-38.519c-4.273,1.6-13.429,2.619-20.408,2.54A77.474,77.474,0,0,1,544.334,251.7Z" transform="translate(-509.976 -94.775)"/><path class="i" d="M550.093,170.091c11.845,26.57-.081,114.547-6.459,143.007,0,0-21.207-.5-20.182-6.045,15.194-82.142,9.33-120.666,7.907-128.6Z" transform="translate(-510.559 -97.618)"/><path class="i" d="M573.512,172.09c-4.491,33.006,3.848,108.965,10.78,139.891,0,0,21.207-.5,20.181-6.044C589.282,223.8,593.3,186.221,594.719,178.286Z" transform="translate(-508.858 -97.548)"/><path class="j" d="M574.857,245.468v0Zm-1.425-72.779c.027-.2.053-.4.08-.6l10.36,13.515-8.318,6.157,9.731,7.936c-5.737,12.021-9.558,30.607-10.428,45.77C572.325,217.956,571.218,189.8,573.432,172.689Z" transform="translate(-508.858 -97.548)"/><path class="g" d="M558.614,169.251l-3.14,9.506-6.279-8.5,3.663-4.855Z" transform="translate(-509.661 -97.781)"/><path class="g" d="M568.751,178.384l-3.881-9.07,4.986-3.2,4,6.6Z" transform="translate(-509.116 -97.756)"/><path class="j" d="M553.237,239.159c2.161-28.282,2.065-56.048-3.739-69.068l-8.132,15.3,8.56,6.157-9.418,7.935c6.209,12.02,10.761,30.6,12.231,45.761l.5-6.078Z" transform="translate(-509.964 -97.618)"/><path class="k" d="M551.708,219.811a4.862,4.862,0,1,0-4.863-4.862A4.87,4.87,0,0,0,551.708,219.811Z" transform="translate(-509.743 -96.225)"/><path class="l" d="M549.936,169.434a12.157,12.157,0,0,0-1.571,1.084,9.01,9.01,0,0,0-2.841,3.791c-.813,2.225.495,5.457,2.416,10.2a119.8,119.8,0,0,1,4.268,11.875c3.489,11.95,1.036,18.3.529,19.607l-.023.06-1.149-.444.023-.06c.481-1.246,2.81-7.268-.563-18.82a118.953,118.953,0,0,0-4.229-11.755c-2.028-5-3.407-8.413-2.431-11.084a10.238,10.238,0,0,1,3.221-4.326,10.414,10.414,0,0,1,3.761-2Z" transform="translate(-509.841 -97.706)"/><circle class="m" cx="2.769" cy="2.769" r="2.769" transform="translate(39.513 115.778)"/><path class="l" d="M570.845,168.026c1.539-.328,4.423.544,9.566,6.245,4.355,4.824,5.865,9.495,5.838,13.929-.027,4.407-1.575,8.538-3.348,12.351l-1.121-.516c1.715-3.687,3.211-7.665,3.237-11.84.025-4.147-1.4-8.533-5.524-13.1-4.489-4.974-6.819-6.005-7.989-5.98h0Z" transform="translate(-508.907 -97.692)"/><path class="n" d="M582.526,199.683c-.015,0-4.568-.733-7.311.47a8.286,8.286,0,0,0-2.1,2.249c-1.488,1.95-5.763,10.457-4.839,12.563a8.026,8.026,0,0,0,2.521,3.193l-.578.758a8.979,8.979,0,0,1-2.817-3.57c-1.105-2.523,3.25-11.289,4.956-13.522a7.2,7.2,0,0,1,2.451-2.238c3.022-1.325,8.156-.287,8.17-.284Z" transform="translate(-509.033 -96.614)"/><path class="l" d="M582.525,198.1c-.327.109-5.3-.219-7.032.556a4.075,4.075,0,0,0-2.106,1.584l1.114.9a4.161,4.161,0,0,1,2.355-1.363,22.018,22.018,0,0,1,5.148-.064Z" transform="translate(-508.818 -96.642)"/><path class="k" d="M569.344,216.2s1.916.906,2.13,1.337-.363,1.07-.7,1.364-.882-.12-1.286-.643a3.9,3.9,0,0,1-.742-1.288A4.662,4.662,0,0,1,569.344,216.2Z" transform="translate(-508.98 -96.012)"/><path class="n" d="M583.075,199.849c.011.009,3.644,3.04,4.279,5.967a8.222,8.222,0,0,1-.591,3.018c-.706,2.349-5.086,10.8-7.333,11.289a8.023,8.023,0,0,1-4.066-.168l-.273.913a8.949,8.949,0,0,0,4.543.185c2.692-.584,7.234-9.255,8.043-11.945a7.186,7.186,0,0,0,.373-3.3c-.7-3.225-4.725-6.427-4.735-6.439Z" transform="translate(-508.759 -96.598)"/><path class="k" d="M577.313,219.623a8.294,8.294,0,0,0-2.331-.94c-.474.08-.654.921-.694,1.368s.616.644,1.276.663a3.872,3.872,0,0,0,1.478-.154A4.621,4.621,0,0,0,577.313,219.623Z" transform="translate(-508.788 -95.925)"/><path class="l" d="M582.851,198.383c1.432.648,4.53,4.405,5,6.391a7.709,7.709,0,0,1,.118,3.375l-1.447-.495s.643-1.309-.651-3.808-4.634-4.453-4.634-4.453Z" transform="translate(-508.545 -96.632)"/><g transform="translate(29.517 293.434)"><path class="o" d="M554.16,386.7a19.775,19.775,0,0,1-1.377,6.044c-1.519,4.719-9.345,5.889-13.233,3.871-.4-.206,2.778-2.205,5.606-5.242a3.706,3.706,0,0,0,2,.864c1.657.305,4.622-1.4,6.016-3.707C553.541,387.932,553.871,387.3,554.16,386.7Z" transform="translate(-539.515 -383.506)"/><path class="o" d="M555.2,383.614a10.517,10.517,0,0,1,.713,3.242,6.371,6.371,0,0,1-.654,2.7l-.675,4.23-1.548.479-.829-.13-.305-.61-1.395.087.129-2.643a8.407,8.407,0,0,0,2.16-2.328,28.619,28.619,0,0,0,2.29-4.99Z" transform="translate(-539.132 -383.614)"/></g><path class="e" d="M570.816,378.213a31.177,31.177,0,0,0-.669,4.849c0,3.1,4.038,7.3,5.984,8.975,0,0,0,.689-1.089.879s-6.933-.555-8.285-2.41a9.729,9.729,0,0,1-1.7-5.252c-.2-1.735,1.745-4.429,1.745-4.429Z" transform="translate(-509.11 -90.369)"/><g transform="translate(55.407 293.331)"><path class="o" d="M566.6,386.585a19.651,19.651,0,0,0,1.377,6.024c1.52,4.7,9.347,5.755,13.234,3.682.4-.213-2.777-2.166-5.6-5.161a3.766,3.766,0,0,1-2,.892c-1.657.329-4.622-1.329-6.017-3.62C567.216,387.8,566.886,387.18,566.6,386.585Z" transform="translate(-564.462 -383.408)"/><path class="o" d="M565.247,383.515a10.58,10.58,0,0,0-.713,3.253,6.3,6.3,0,0,0,.654,2.694l.677,4.22,1.548.458.828-.143.305-.615,1.4.066-.131-2.64a8.26,8.26,0,0,1-2.16-2.3,28.237,28.237,0,0,1-2.29-4.957Z" transform="translate(-564.534 -383.515)"/></g><path class="p" d="M577.631,257.649c.866.066,17.032,2.99,17.032,2.99l-.075,2.178L577.4,259.625Z" transform="translate(-508.679 -94.568)"/><path class="p" d="M550.954,255.351c-.867.066-17.033,2.99-17.033,2.99l.077,2.178,17.185-3.193Z" transform="translate(-510.193 -94.648)"/><path class="d" d="M537.251,133.752s2.51,11.657,3.712,16.22c3.394,12.881,23.574,17.461,30.986,10.915,5.313-4.692,14.919-22.028,13.408-22.287-.594-.1-48.049-4.589-48.049-4.589Z" transform="translate(-510.077 -98.884)"/><path class="q" d="M583.031,134.121c.944-.465,2.817-1.018,4.406,1.675s-.3,7.135-3.179,9.327-4.479,2.1-4.675,1.372S583.031,134.121,583.031,134.121Z" transform="translate(-508.603 -98.884)"/><path class="r" d="M581.949,145.172a.954.954,0,0,1,.958.965.981.981,0,0,1-.979.968.953.953,0,0,1-.958-.965A.98.98,0,0,1,581.949,145.172Z" transform="translate(-508.555 -98.486)"/><path class="s" d="M586.585,137.328c.629,1.4-1.174,4.84-2.958,6.356s-2.911,1.677-3.017.738a3.983,3.983,0,0,1,1.546-3.029c.927-.736.24-1.076.2-2.3a4.688,4.688,0,0,1,.784-2.639C584.11,134.949,586.04,136.117,586.585,137.328Z" transform="translate(-508.567 -98.814)"/><path class="t" d="M579.7,153.484c5.821-7.871,12.579-27.965,6.17-41.034-5.756-11.734-39.521-16.35-49.762,5.145C527.238,136.207,548.4,176.7,579.7,153.484Z" transform="translate(-510.188 -99.97)"/><path class="e" d="M584.776,138.652c-.592,8.237-10.968,26.793-22.405,27.362-12.748-.745-20.417-17.091-20.417-17.091s-4.916-9.9-3.876-17.832,4.659-13.982,17.282-16.538,22.484-1.7,26.27,1.471C587.728,121.138,585.291,131.488,584.776,138.652Z" transform="translate(-510.054 -99.605)"/><path class="d" d="M557.684,133.858a21.78,21.78,0,0,0-12.428-1.107C546.537,130.032,555.946,129.688,557.684,133.858Z" transform="translate(-509.798 -98.989)"/><path class="u" d="M573.008,146.031c2.818.064,5.136-.42,5.159-1.078s-2.258-1.248-5.077-1.312-5.137.419-5.16,1.077S570.189,145.966,573.008,146.031Z" transform="translate(-509.009 -98.539)"/><path class="u" d="M551.041,146.03c2.82-.113,5.1-.742,5.085-1.4s-2.335-1.1-5.155-.989-5.1.743-5.084,1.4S548.221,146.144,551.041,146.03Z" transform="translate(-509.776 -98.54)"/><path class="v" d="M560.506,136.352a3.78,3.78,0,0,0-1.515-1.184c-3.842-1.461-14.6-1.125-17.484-.486-.37.083-.41.068-.457.314a7.148,7.148,0,0,0-.444,1.84c.111.222,1.124.4,1.6,1.133.854,1.315.645,6.023,2.714,8.3,2.142,2.359,10.538,2.628,12.905-.4a25.106,25.106,0,0,0,3.252-6.4,1.917,1.917,0,0,1,1.307-.554,4.088,4.088,0,0,1,1.131.025,1.879,1.879,0,0,1,1.27.611,24.606,24.606,0,0,0,2.847,6.534c2.176,3.126,10.576,3.226,12.863.965,2.209-2.185,2.294-6.894,3.23-8.171.523-.712,1.09-.791,1.216-1.008a7.763,7.763,0,0,0,.125-1.91c-.032-.246-.072-.234-.437-.332-2.836-.765-13.562-1.57-17.49-.279a3.879,3.879,0,0,0-1.587,1.117,22.14,22.14,0,0,1-5.048-.111Zm20.2-.062h0a1.74,1.74,0,0,1,1.371,1.167,11.364,11.364,0,0,1-.132,4.664,10.408,10.408,0,0,1-1.622,3.933c-2.407,2.787-10.073,2.282-11.909-.2-1.413-1.914-3.756-7.557-.628-9.082,2.678-1.3,10.261-1.419,12.921-.479Zm-35.315-.773h0c2.715-.822,10.28-.377,12.874,1.044,3.027,1.659.336,7.192-1.2,9.041-1.988,2.4-9.675,2.572-11.9-.317a10.2,10.2,0,0,1-1.375-4,11.388,11.388,0,0,1,.158-4.663A1.786,1.786,0,0,1,545.388,135.516Z" transform="translate(-509.961 -98.87)"/><path class="w" d="M562.841,143.354c-.478.107-2.278,3.532-1.908,4.7s3.03,1.934,3.03,1.934-1.581-1.291-1.742-2.159a4.6,4.6,0,0,1,.073-2.487C562.6,144.3,562.789,143.421,562.841,143.354Z" transform="translate(-509.254 -98.549)"/><path class="d" d="M588,131.307c-.881,5.133-11.1-8.583-15.163-13.856-10.878,11.151-24.923,14.325-30.954,15.585-1.237,3.083-.354,7.787.559,11.811,1.736,7.659,1.878,6.318,1.553,6.082-2.382-3.522-2.631-6.735-5.725-14.058-1.319-3.125-2.28-4.018-4.225-8.791.248-31.03,36.769-32.854,44.669-21.97C586.73,109.291,590.692,115.584,588,131.307Z" transform="translate(-510.189 -100.057)"/><path class="q" d="M538.837,135.864c-.936-.462-2.8-1.011-4.441,1.688s.153,7.133,2.993,9.318,4.436,2.091,4.647,1.361S538.837,135.864,538.837,135.864Z" transform="translate(-510.199 -98.823)"/><path class="s" d="M535.138,139.082c-.658,1.4,1.077,4.836,2.832,6.348s2.878,1.67,3,.73a3.887,3.887,0,0,0-1.486-3.025c-.911-.733-.217-1.075-.148-2.3a4.6,4.6,0,0,0-.733-2.637C537.661,136.7,535.707,137.868,535.138,139.082Z" transform="translate(-510.156 -98.753)"/><path class="r" d="M540.626,146.644a.955.955,0,0,1,.959.966.982.982,0,0,1-.979.969.954.954,0,0,1-.958-.965A.981.981,0,0,1,540.626,146.644Z" transform="translate(-509.994 -98.435)"/><path class="d" d="M569.813,111.741l2.494,3.93c.631,6.569-11.981,12.884-15.75,13.8,3.506-1.15,13.42-9.078,14.585-13.564Z" transform="translate(-509.405 -99.65)"/><path class="d" d="M567.1,134.4a21.775,21.775,0,0,1,12.468-.445C578.491,131.17,569.142,130.324,567.1,134.4Z" transform="translate(-509.038 -98.958)"/><path class="d" d="M543.651,123.514s-2.666.507-4.142,11.566,3.261,22.338,2.077,27.023a26.645,26.645,0,0,0-.234,9.865s-6.048-8.931-7.689-26.408a78.49,78.49,0,0,1,.557-21.162,32.233,32.233,0,0,1,1.915-7.309Z" transform="translate(-510.218 -99.464)"/><path class="d" d="M577.2,116.478c-.049.605,6.35,14.716,6.822,20.2s-3.369,14.252-3.483,23.37,6.353,15.389,6.353,15.389c-2.183-15.958,6.083-56.011-2.566-64.562l-7.085,5.791Z" transform="translate(-508.686 -99.68)"/><path class="i" d="M535.97,200.347c8.176-17.516.381-24.385-4.4-22.163-1.927.9-5.687,8.106-9.038,15.087l-5.068,35.1c1.834-1.12,7.333-1.358,9.894-5.493C530.471,217.838,530.89,208.3,535.97,200.347Z" transform="translate(-510.767 -97.35)"/><path class="i" d="M526.795,224.17c2.383-2.551-1.559-45.691-1.559-45.691l-11.928.031s-5.8,42.5.958,49.967C520.019,235.141,524.59,228.06,526.795,224.17Z" transform="translate(-510.992 -97.326)"/><path class="x" d="M526.319,197.632c-.474-7.161-1.03-13.823-1.314-17.1l-1.974-.026v3.862s.686,15.161.961,21.482-.092,12.736,0,11.728A161.78,161.78,0,0,0,526.319,197.632Z" transform="translate(-510.573 -97.255)"/><path class="e" d="M609.354,215.643c-.147,2.347.083,5.416-1.087,7.461s-2.22,2.211-5.226,2.289-4.345-1.358-4.3-1.694,8.024-8.494,8.024-8.494Z" transform="translate(-507.936 -96.046)"/><path class="i" d="M594.778,182.158a44.711,44.711,0,0,1,5.825-4.12S615.248,224.765,615.774,229s-5.017,9.742-9.5,8.842-13.331-45.046-13.065-46.368S594.778,182.158,594.778,182.158Z" transform="translate(-508.128 -97.341)"/><g transform="translate(47.071 68.813)"><rect class="y" width="65.151" height="45.776" transform="translate(0 65.506) rotate(-75.637)"/><path class="z" d="M583.492,174.732l16.265,4.164a5.252,5.252,0,0,0-3.785-6.392l-1.66-.424a.608.608,0,0,1-.436-.741.616.616,0,0,1,.422-.435,2.218,2.218,0,1,0-2.18-.558.622.622,0,0,1,.169.586.612.612,0,0,1-.742.439l-1.66-.425a5.251,5.251,0,0,0-6.392,3.786Zm9.966-5.074h0a.944.944,0,1,1,1.145-.679A.941.941,0,0,1,593.457,169.658Z" transform="translate(-555.538 -166.554)"/><path class="aa" d="M583.492,174.536l16.265,4.164a5.22,5.22,0,0,0-.023-2.695l-14.926-3.823A5.209,5.209,0,0,0,583.492,174.536Z" transform="translate(-555.538 -166.358)"/></g><path class="e" d="M608.888,211.151c3.211,2.537,2.817,5.636.216,5.31-1.152-.144-1.062-2.036-3.286-2.827-2.73-.97-4.517-1.8-4.225-3C602.464,207.037,606.953,209.621,608.888,211.151Z" transform="translate(-507.837 -96.269)"/><path class="ab" d="M611.176,214.73c.042,1.129-.713,1.892-2.07,1.721-1.152-.144-1.248-1.635-3.287-2.827-2.189-1.279-4.722-.63-4.225-3a2.218,2.218,0,0,1,.987-1.524c-.9,1.225-1.007,1.627-.268,2.128s2.2.24,3.678.964,3.783,3.065,4.132,3.2C610.339,215.474,610.813,215.1,611.176,214.73Z" transform="translate(-507.838 -96.259)"/><path class="e" d="M608.588,214.036c3.668,2.129,3.25,5.766.3,6.021-1.308.113-2.173-.964-4.5-1.836-2.5-.937-4.4-1.571-4.082-3.019C601.259,210.88,606.377,212.753,608.588,214.036Z" transform="translate(-507.882 -96.14)"/><path class="ab" d="M611.216,217.566a2.329,2.329,0,0,1-2.332,2.467c-1.308.113-2.173-.964-4.5-1.836-2.5-.937-4.4-1.571-4.082-3.019a3.431,3.431,0,0,1,1.105-1.982c-1.011,1.619-.663,2.912-.243,3s2.458-.761,4.143-.288,4.321,2.593,4.719,2.663C610.273,218.618,610.807,218.074,611.216,217.566Z" transform="translate(-507.882 -96.116)"/><path class="e" d="M607.649,217.675c3.436,1.993,3.045,5.4.277,5.64-1.224.105-2.034-.9-4.212-1.72-2.338-.878-4.124-1.472-3.823-2.828C600.784,214.718,605.579,216.473,607.649,217.675Z" transform="translate(-507.897 -96.01)"/><path class="ab" d="M610.111,220.982a2.183,2.183,0,0,1-2.184,2.311c-1.224.106-2.034-.9-4.212-1.72-2.338-.878-4.124-1.472-3.825-2.828a3.212,3.212,0,0,1,1.036-1.855c-.948,1.517-.622,2.727-.229,2.813s2.3-.712,3.881-.27,4.049,2.43,4.421,2.495C609.228,221.967,609.728,221.458,610.111,220.982Z" transform="translate(-507.896 -95.988)"/><path class="e" d="M606,220.852c2.989,1.5,3.067,3.86.665,4.2-1.062.149-1.046-.885-2.939-1.463-2.032-.62-4.419-.671-4.114-1.809C600.281,219.285,604.2,219.946,606,220.852Z" transform="translate(-507.906 -95.878)"/><path class="ab" d="M608.365,223.452c.054,1-.443,1.405-1.7,1.581-1.062.149-1.36-.884-3.254-1.461-2.031-.621-3.752-.438-3.936-1.467-.149-.835.731-1.355,1-1.569-1.015.85-.7,1.843-.219,1.933s1.253.161,2.625.454,2.35,1.6,3.713,1.572A1.7,1.7,0,0,0,608.365,223.452Z" transform="translate(-507.91 -95.861)"/><path class="i" d="M546.389,139.035c-.664-.778,4.872-4.095,8.289-1.146a1.729,1.729,0,0,1,.832,1.616c-.227,1.2-3.045,1.68-4.124,1.611A7.883,7.883,0,0,1,546.389,139.035Z" transform="translate(-509.761 -98.781)"/><path class="ac" d="M549.328,138.908a2.094,2.094,0,1,1,2.07,2.147A2.1,2.1,0,0,1,549.328,138.908Z" transform="translate(-509.656 -98.777)"/><path class="i" d="M551.4,138.2a.786.786,0,1,1,.777.806A.793.793,0,0,1,551.4,138.2Z" transform="translate(-509.584 -98.756)"/><path class="ac" d="M546.439,139.039l-1.535-1.617c2.112.574,9.5-3.156,10.665,1.665C554.422,136.114,547.647,136.363,546.439,139.039Z" transform="translate(-509.811 -98.785)"/><path class="i" d="M577.9,139.335c.682-.778-5.013-4.094-8.53-1.146a1.712,1.712,0,0,0-.856,1.616c.234,1.2,3.134,1.68,4.244,1.611A8.206,8.206,0,0,0,577.9,139.335Z" transform="translate(-508.989 -98.771)"/><path class="ac" d="M574.7,139.208a2.155,2.155,0,1,0-2.131,2.147A2.137,2.137,0,0,0,574.7,139.208Z" transform="translate(-508.923 -98.766)"/><path class="i" d="M574.161,138.428a.808.808,0,1,0-.8.806A.8.8,0,0,0,574.161,138.428Z" transform="translate(-508.848 -98.748)"/><path class="ac" d="M577.9,139.339l1.579-1.616c-2.174.574-9.779-3.156-10.974,1.665C569.687,136.414,576.656,136.663,577.9,139.339Z" transform="translate(-508.989 -98.774)"/><path class="ad" d="M555.731,153.749c1.1.465,2.6-.005,3.784-.314a3.144,3.144,0,0,1,1.827-.051c1.077.38.949.348,2.044-.09,1.618-.307,3.768,1.2,5.013.528-1.706,2.838-3.69,4.105-6.2,4.043C559.683,157.8,556.644,156.393,555.731,153.749Z" transform="translate(-509.434 -98.204)"/><g transform="translate(45.842 53.772)"><path class="ae" d="M568.916,152.019c-.052,2.7-3.056,4.891-6.773,4.921s-6.755-2.114-6.851-4.81a28.086,28.086,0,0,0,13.625-.111Z" transform="translate(-555.291 -152.019)"/><path class="i" d="M556.8,152.467a29.125,29.125,0,0,0,10.638-.112c.021.285-.018.084-.011.782.014,1.854-10.583,1.94-10.6.1C556.82,152.541,556.784,152.743,556.8,152.467Z" transform="translate(-555.239 -152.007)"/><path class="af" d="M564.7,157.441c-.353.723-4.6.845-5.246-.028A9.382,9.382,0,0,0,564.7,157.441Z" transform="translate(-555.146 -151.831)"/></g><path class="e" d="M526.006,164.44c.189-2.792-.208-3.052,2.029-11.761.58-2.4-1.87-3.017-3.288.257-1.134,2.622-2.489,9.882-2.489,9.882a9.6,9.6,0,0,0-2.051-1.492c-.873-.378-2.687.785-2.687.785a5.959,5.959,0,0,0-2.59.037,4.115,4.115,0,0,0-1.478,1.2s-1.319-.159-1.745.648a11.776,11.776,0,0,0-.182,5.353c.4.768,1.081,1.992,1.081,1.992-.248,2.175,2.848,4.256,2.848,4.256l.359,6.223s9.554,3.271,9.324,2.531.151-7.64.766-8.533,2.766-3.638,2.964-4.834.637-4.927.039-5.2c-.38-.174-1.541-.8-2.269-1.134Z" transform="translate(-510.981 -98.294)"/><path class="ag" d="M527.957,151.151c-.524-.924-2.137-.6-3.207,1.872-1.135,2.622-2.535,9.795-2.535,9.795l-.112-.112c0,.006.316.969.483,1.55s-1.713,3.287-1.883,3.609a7.769,7.769,0,0,0,.171,2.685c.154.484-1.544,1.676-2.492.19a10.6,10.6,0,0,1-.9-3.543,19.116,19.116,0,0,1,.046-3.836,13.668,13.668,0,0,0-.4,2.938,13.409,13.409,0,0,0,.526,3.1c.382,1.128.3,1.276.242,1.448-.113.332-.979.68-1.7.619s-.92-1.014-1.313-1.666a35.751,35.751,0,0,1-1.255-5.326c-.014-.267.033.151.039.825s.742,4.365.837,4.673a5.218,5.218,0,0,1,.549,1.628c0,.567-.856.944-1.074,1.065-.451.247-1.418-1.319-1.418-1.319-.247,2.175,1.758,4.461,1.758,4.461l.874,5.67a4.031,4.031,0,0,0,1.817,1.6l1.032-.884a25.9,25.9,0,0,0,.008-3.84c.822-.919,3.465.694,5.842-.136.177-.062-5.2-.18-3.387-4.738.943-2.364,3.034-2.867,4.6-4.6,0,0-.666-1.274-.736-1.022s-.628.113-.779.147c.357-5.962-.883-1.284-1.254.145a1.581,1.581,0,0,0-.712-.215s1.154-3.436,1.7-3.55,3.016.326,3.265.275c0,0-2.868-.912-3.129-1.453s.094-4.2.749-6.607S526.1,150.627,527.957,151.151Z" transform="translate(-510.938 -98.294)"/><path class="ah" d="M523.357,177.667c-6.4.007-8.139-1.8-10.766-6.972a8.147,8.147,0,0,0,2.629,4.885c.068,2.791.621,5.452.4,5.769-.4.565,7.652.132,7.778-.5A24.911,24.911,0,0,0,523.357,177.667Z" transform="translate(-510.937 -97.597)"/><path class="ai" d="M526.41,183.92c.117-.954-.19-5.922-.19-5.922l-13.539-.34-.6,6.674Z" transform="translate(-510.954 -97.354)"/><path class="e" d="M527.75,166.532c-.191-.432-1.363-2.341-1.363-2.341l-3.265-.274a12.832,12.832,0,0,0-2.512,1.368c-1.7,1.1-2.2.912-2.109,1.318a3.848,3.848,0,0,0,3.067,1.581,9.92,9.92,0,0,0,4.648-.958A11.088,11.088,0,0,1,527.75,166.532Z" transform="translate(-510.731 -97.833)"/><path class="ag" d="M518.361,166.127c-.121-.208,2.958-2.022,4.187-1.967,0,0-4.264,1.351-3.968,2.1,1.294,3.282,7.232,1,7.232,1a7.689,7.689,0,0,1-1.665,1.689,5.8,5.8,0,0,1-1.965.6l-.455-.863s-.658-.228-1.689-.6C518.87,167.671,518.65,166.623,518.361,166.127Z" transform="translate(-510.735 -97.824)"/><path class="aj" d="M570.727,101.2a31.523,31.523,0,0,0-17.349.141c-.434.437-.974.95-1.641,1.546-2.835,2.529-10.771,6.672-10.771,6.672a3.221,3.221,0,0,0,.93.147c3.738.115,12.07-3.82,14.114-5.729a26.431,26.431,0,0,1-5.931,6.8,91.683,91.683,0,0,1-9.482,6.806,56.022,56.022,0,0,0,9.918-3.754c5.931-2.965,12.254-9.461,12.254-9.461a26.181,26.181,0,0,1-5.886,8.59c-.671.649-1.451,1.392-2.292,2.182-4.217,3.963-9.955,9.126-10.907,9.676a71.191,71.191,0,0,0,9.8-3.792c4.1-2.137,8.5-6.672,8.5-6.672a46.222,46.222,0,0,1-8.46,9.462,64.662,64.662,0,0,1-11.553,7.239,72.176,72.176,0,0,0,12.337-4.623c4.373-2.218,10.819-8.032,14.451-12.933a14.834,14.834,0,0,0,2.644-4.9,12.15,12.15,0,0,0-.024-4.988A17.8,17.8,0,0,0,570.727,101.2Z" transform="translate(-509.961 -100.057)"/><path class="x" d="M533.89,199.652c-1.717,4.237-4.059,9.833-6.349,14.882-2.779,6.133-5.48,11.459-6.879,12.562a2.939,2.939,0,0,1-2.511.817,1.985,1.985,0,0,1-.409-.156c-1.6-.823-2.626-3.965-3.237-8.573-.745-5.636.566-27.206,1.09-35.174l-2.981.085c-1.307,11.883-3.555,38.434,1.653,44.189,5.753,6.664,10.323-.417,12.529-4.307a1.594,1.594,0,0,0,.295-.621,7.8,7.8,0,0,0,.49-.7c2.6-4.2,3.324-11.548,6.447-18.483.449,20.781-1.2,54.026-10.142,102.4-.869,4.7,14.267,5.776,18.873,5.994a27.961,27.961,0,0,1-8.008-2.179,23.857,23.857,0,0,1-7.566-5.011s3.681-14.314,6.748-46.826a559.111,559.111,0,0,0,2.077-58.118c-.059-3.68-.134-5.782-.134-5.782C535.414,195.844,534.726,197.587,533.89,199.652Z" transform="translate(-510.992 -97.133)"/></g></g></g></svg>