<svg xmlns="http://www.w3.org/2000/svg" xmlns:xlink="http://www.w3.org/1999/xlink" width="65" height="65" viewBox="0 0 65 65"><defs><style>.a{fill:#0ba29c;}.b{fill:#fff;}.c{filter:url(#a);}</style><filter id="a" x="0" y="0" width="65" height="65" filterUnits="userSpaceOnUse"><feOffset dy="3" input="SourceAlpha"/><feGaussianBlur stdDeviation="3" result="b"/><feFlood flood-opacity="0.161"/><feComposite operator="in" in2="b"/><feComposite in="SourceGraphic"/></filter></defs><g transform="translate(9 6)"><g class="c" transform="matrix(1, 0, 0, 1, -9, -6)"><circle class="a" cx="23.5" cy="23.5" r="23.5" transform="translate(9 6)"/></g><path class="b" d="M545.875-27.15c1.355.66,1.036,1.933,1.079,3.118.566.114,1.115.191,1.644.337,5.779,1.6,9.278,5.332,10.411,11.236.091.473.25.663.732.619a5.478,5.478,0,0,1,1.144.014,1.46,1.46,0,0,1,1.333,1.574,1.453,1.453,0,0,1-1.4,1.431c-.549.046-1.274-.127-1.6.161s-.261,1.039-.411,1.573a13.536,13.536,0,0,1-11.164,10.3c-.617.121-.749.349-.7.881a5.9,5.9,0,0,1,0,.916,1.489,1.489,0,0,1-1.4,1.447A1.539,1.539,0,0,1,543.942,5.2a1.25,1.25,0,0,1-.019-.152c-.052-.571.091-1.306-.212-1.667-.281-.336-1.047-.24-1.583-.39A13.509,13.509,0,0,1,531.869-8.117c-.123-.613-.35-.756-.882-.7A2.122,2.122,0,0,1,528.6-9.875v-.917a2.144,2.144,0,0,1,2.388-1.056c.519.053.779-.047.879-.689a13.727,13.727,0,0,1,10.754-11.24c.414-.086.831-.162,1.278-.25.023-1.184-.246-2.436,1.057-3.124Zm10.272,16.875a10.7,10.7,0,0,0-10.7-10.763A10.724,10.724,0,0,0,534.709-10.3,10.719,10.719,0,0,0,545.419.38,10.693,10.693,0,0,0,556.147-10.275Z" transform="translate(-521.982 33.847)"/><path class="b" d="M573.093,11.976a5.336,5.336,0,1,1-5.368-5.315A5.313,5.313,0,0,1,573.093,11.976Z" transform="translate(-544.314 11.522)"/></g></svg>