<svg xmlns="http://www.w3.org/2000/svg" width="53.103" height="72.124" viewBox="0 0 53.103 72.124"><defs><style>.a{opacity:0.16;}.b,.c{fill:#919191;}.c,.d,.e{fill-rule:evenodd;}.d{fill:#fff;}.e{fill:#3d3e3d;}</style></defs><ellipse class="a" cx="12.701" cy="3.175" rx="12.701" ry="3.175" transform="translate(13.683 65.773)"/><path class="b" d="M741.132,496.212l7.157-33.924a2.729,2.729,0,0,0-2.67-3.292H731.3a2.728,2.728,0,0,0-2.669,3.292l7.157,33.924A2.729,2.729,0,0,0,741.132,496.212Z" transform="translate(-711.91 -429.967)"/><path class="c" d="M718.563,447.979a26.489,26.489,0,1,0-26.49-26.49A26.54,26.54,0,0,0,718.563,447.979Z" transform="translate(-691.966 -395)"/><path class="d" d="M783.81,443.582s7.173-2.448,9.466-8.3c0,0,1.165,1.019.938,3.832,0,0-2.375,5.139-9.655,7.525l-1.85-.478Z" transform="translate(-741.489 -417.008)"/><path class="d" d="M779.083,467.592l2.6-.592s7.153-2.831,9.286-7.235a7.072,7.072,0,0,1-1.328,5.875c-2.207,3.144-8.829,6.545-13.245,6.247Z" transform="translate(-738.041 -430.387)"/><path class="d" d="M703.041,443.582s-7.174-2.448-9.465-8.3c0,0-1.165,1.019-.938,3.832,0,0,2.375,5.139,9.653,7.525l1.85-.478Z" transform="translate(-692.258 -417.008)"/><path class="d" d="M703.9,467.592l-2.6-.592s-7.152-2.831-9.285-7.235a7.071,7.071,0,0,0,1.329,5.875c2.206,3.144,8.829,6.545,13.245,6.247Z" transform="translate(-691.836 -430.387)"/><path class="d" d="M742.52,448.647c2.907.355,4.163,3.119,4.362,7.228a42.882,42.882,0,0,1-.3,8.329c-.516,2.4-1.7,4.445-4.259,5.008-5.512,1.216-19.674,1.216-25.189,0-2.4-.529-3.59-2.357-4.155-4.567-.569-2.23-.5-6.7-.4-8.77.2-4.11,1.454-6.873,4.361-7.228A201.806,201.806,0,0,1,742.52,448.647Z" transform="translate(-703.132 -424.091)"/><g transform="translate(13.345 13.038)"><path class="e" d="M721.471,424.986a.729.729,0,0,1,1.031-1.031l2.571,2.571,2.571-2.571a.729.729,0,0,1,1.031,1.031l-2.571,2.571,2.571,2.572a.729.729,0,0,1-1.031,1.03l-2.571-2.571-2.571,2.571a.729.729,0,0,1-1.031-1.03l2.571-2.572Z" transform="translate(-721.257 -423.742)"/><path class="e" d="M763.265,424.986a.729.729,0,0,1,1.031-1.031l2.571,2.571,2.571-2.571a.729.729,0,0,1,1.031,1.031l-2.571,2.571,2.571,2.572a.729.729,0,1,1-1.031,1.03l-2.571-2.571-2.571,2.571a.729.729,0,0,1-1.031-1.03l2.571-2.572Z" transform="translate(-744.093 -423.742)"/></g></svg>